<mxfile host="app.diagrams.net" modified="2023-05-22T08:48:01.602Z" agent="Mozilla/5.0 (Windows NT 10.0; Win64; x64) AppleWebKit/537.36 (KHTML, like Gecko) Chrome/113.0.0.0 Safari/537.36 Edg/113.0.1774.50" etag="8Ak8COmV7ZwO1THgKPOJ" version="21.3.2" type="github">
  <diagram name="Page-1" id="CuVX-zyMGm0V7FoODKGD">
    <mxGraphModel dx="1050" dy="573" grid="1" gridSize="10" guides="1" tooltips="1" connect="1" arrows="1" fold="1" page="1" pageScale="1" pageWidth="850" pageHeight="1100" math="0" shadow="0">
      <root>
        <mxCell id="0" />
        <mxCell id="1" parent="0" />
        <mxCell id="Ohs2YBJv9ZenXhvDKBvc-1" value="" style="rounded=0;whiteSpace=wrap;html=1;labelBackgroundColor=none;" vertex="1" parent="1">
          <mxGeometry x="220" y="110" width="120" height="60" as="geometry" />
        </mxCell>
        <mxCell id="Ohs2YBJv9ZenXhvDKBvc-2" value="DeliveryForm&lt;br&gt;" style="text;strokeColor=none;align=center;fillColor=none;html=1;verticalAlign=middle;whiteSpace=wrap;rounded=0;labelBackgroundColor=none;" vertex="1" parent="1">
          <mxGeometry x="250" y="125" width="60" height="30" as="geometry" />
        </mxCell>
        <mxCell id="Ohs2YBJv9ZenXhvDKBvc-3" value="PlaceRushOrderScreen" style="rounded=0;whiteSpace=wrap;html=1;labelBackgroundColor=none;" vertex="1" parent="1">
          <mxGeometry x="150" y="240" width="160" height="60" as="geometry" />
        </mxCell>
        <mxCell id="Ohs2YBJv9ZenXhvDKBvc-4" value="PlaceOrderScreen" style="rounded=0;whiteSpace=wrap;html=1;labelBackgroundColor=none;" vertex="1" parent="1">
          <mxGeometry x="500" y="95" width="120" height="60" as="geometry" />
        </mxCell>
        <mxCell id="Ohs2YBJv9ZenXhvDKBvc-5" value="PaymentScreen" style="rounded=0;whiteSpace=wrap;html=1;labelBackgroundColor=none;" vertex="1" parent="1">
          <mxGeometry x="450" y="240" width="120" height="60" as="geometry" />
        </mxCell>
        <mxCell id="Ohs2YBJv9ZenXhvDKBvc-11" value="" style="endArrow=classic;html=1;rounded=0;exitX=1;exitY=1;exitDx=0;exitDy=0;labelBackgroundColor=none;fontColor=default;" edge="1" parent="1" source="Ohs2YBJv9ZenXhvDKBvc-2" target="Ohs2YBJv9ZenXhvDKBvc-4">
          <mxGeometry relative="1" as="geometry">
            <mxPoint x="340" y="300" as="sourcePoint" />
            <mxPoint x="500" y="300" as="targetPoint" />
            <Array as="points" />
          </mxGeometry>
        </mxCell>
        <mxCell id="Ohs2YBJv9ZenXhvDKBvc-18" value="" style="endArrow=classic;html=1;rounded=0;" edge="1" parent="1" source="Ohs2YBJv9ZenXhvDKBvc-1" target="Ohs2YBJv9ZenXhvDKBvc-3">
          <mxGeometry relative="1" as="geometry">
            <mxPoint x="340" y="300" as="sourcePoint" />
            <mxPoint x="500" y="300" as="targetPoint" />
            <Array as="points">
              <mxPoint x="230" y="210" />
            </Array>
          </mxGeometry>
        </mxCell>
        <mxCell id="Ohs2YBJv9ZenXhvDKBvc-28" style="edgeStyle=orthogonalEdgeStyle;rounded=0;orthogonalLoop=1;jettySize=auto;html=1;entryX=0.5;entryY=0;entryDx=0;entryDy=0;" edge="1" parent="1" source="Ohs2YBJv9ZenXhvDKBvc-26" target="Ohs2YBJv9ZenXhvDKBvc-1">
          <mxGeometry relative="1" as="geometry" />
        </mxCell>
        <mxCell id="Ohs2YBJv9ZenXhvDKBvc-26" value="CartScreen" style="rounded=0;whiteSpace=wrap;html=1;" vertex="1" parent="1">
          <mxGeometry x="60" y="35" width="100" height="60" as="geometry" />
        </mxCell>
        <mxCell id="Ohs2YBJv9ZenXhvDKBvc-29" value="1" style="endArrow=open;html=1;endSize=12;startArrow=diamondThin;startSize=14;startFill=0;edgeStyle=orthogonalEdgeStyle;align=left;verticalAlign=bottom;rounded=0;exitX=1;exitY=0.5;exitDx=0;exitDy=0;entryX=0;entryY=0.5;entryDx=0;entryDy=0;" edge="1" parent="1" source="Ohs2YBJv9ZenXhvDKBvc-3" target="Ohs2YBJv9ZenXhvDKBvc-5">
          <mxGeometry x="-1" y="3" relative="1" as="geometry">
            <mxPoint x="350" y="300" as="sourcePoint" />
            <mxPoint x="510" y="300" as="targetPoint" />
          </mxGeometry>
        </mxCell>
        <mxCell id="Ohs2YBJv9ZenXhvDKBvc-30" value="1" style="endArrow=open;html=1;endSize=12;startArrow=diamondThin;startSize=14;startFill=0;edgeStyle=orthogonalEdgeStyle;align=left;verticalAlign=bottom;rounded=0;exitX=0.25;exitY=1;exitDx=0;exitDy=0;" edge="1" parent="1" source="Ohs2YBJv9ZenXhvDKBvc-4">
          <mxGeometry x="-1" y="3" relative="1" as="geometry">
            <mxPoint x="350" y="300" as="sourcePoint" />
            <mxPoint x="510" y="240" as="targetPoint" />
          </mxGeometry>
        </mxCell>
      </root>
    </mxGraphModel>
  </diagram>
</mxfile>
